<?xml version="1.0" encoding="UTF-8" standalone="no"?>
<svg
   width="24"
   height="24"
   viewBox="0 0 24 24"
   version="1.1"
   id="svg145"
   sodipodi:docname="codepen.svg"
   inkscape:version="1.2 (dc2aedaf03, 2022-05-15)"
   xmlns:inkscape="http://www.inkscape.org/namespaces/inkscape"
   xmlns:sodipodi="http://sodipodi.sourceforge.net/DTD/sodipodi-0.dtd"
   xmlns="http://www.w3.org/2000/svg"
   xmlns:svg="http://www.w3.org/2000/svg">
  <defs
     id="defs149" />
  <sodipodi:namedview
     id="namedview147"
     pagecolor="#ffffff"
     bordercolor="#666666"
     borderopacity="1.0"
     inkscape:showpageshadow="2"
     inkscape:pageopacity="0.0"
     inkscape:pagecheckerboard="0"
     inkscape:deskcolor="#d1d1d1"
     showgrid="false"
     inkscape:zoom="22.627417"
     inkscape:cx="18.185902"
     inkscape:cy="8.7725435"
     inkscape:window-width="1920"
     inkscape:window-height="1080"
     inkscape:window-x="1920"
     inkscape:window-y="0"
     inkscape:window-maximized="1"
     inkscape:current-layer="svg145" />
  <path
     style="fill:#000000;stroke:none;stroke-width:10;stroke-linecap:round"
     d="m 11.72791,23.896837 c -0.06561,-0.02075 -0.165092,-0.06159 -0.221057,-0.09074 C 11.450887,23.77694 9.3101608,22.363149 6.7496837,20.664336 4.1892066,18.965524 1.7234954,17.329891 1.2703258,17.029593 0.81715579,16.729296 0.40442036,16.435809 0.3531358,16.377399 0.21654063,16.221826 0.11741319,16.007464 0.0824632,15.792074 0.03976243,15.528917 0.04022944,8.4550961 0.08294967,8.1916916 0.12331871,7.9428749 0.26605702,7.6771523 0.43753561,7.5315944 0.64075327,7.3590944 11.404317,0.22878471 11.589529,0.14397039 c 0.32259,-0.14772195 0.707703,-0.11187576 1.030688,0.0959324 1.080101,0.6949415 10.839833,7.18497961 10.964737,7.29133031 0.171592,0.146105 0.314245,0.4118156 0.354586,0.6604555 0.04318,0.2660763 0.04318,7.3374234 0,7.6034984 -0.04035,0.248649 -0.182999,0.514357 -0.354586,0.660442 -0.07459,0.0635 -2.346659,1.581887 -5.049041,3.374181 -6.362467,4.219766 -6.03252,4.004496 -6.224362,4.061016 -0.190994,0.05628 -0.417342,0.05861 -0.583641,0.006 z M 10.907413,18.428295 10.907114,16.139189 8.7972554,14.739536 C 7.6368335,13.969727 6.667265,13.338918 6.6426588,13.337738 c -0.050052,-0.0024 -3.4266472,2.25107 -3.4286556,2.288216 -7.109e-4,0.013 0.4718296,0.336401 1.0500714,0.718679 0.5782424,0.382278 2.2980614,1.522538 3.8218211,2.533911 1.5237595,1.011371 2.7820233,1.838859 2.7961413,1.838859 0.01413,0 0.02554,-1.029765 0.02538,-2.289108 z m 4.851793,0.569315 c 1.424482,-0.945886 3.143603,-2.086143 3.820269,-2.533906 0.676666,-0.447764 1.229691,-0.824749 1.228946,-0.837746 -0.002,-0.03341 -3.375287,-2.290369 -3.423314,-2.290369 -0.02173,0 -0.991312,0.630809 -2.154617,1.401798 l -2.115103,1.401802 -2.98e-4,2.289106 c -1.79e-4,1.360434 0.01075,2.289108 0.02692,2.289108 0.01497,0 1.192707,-0.773907 2.617188,-1.719793 z m -2.05436,-5.915538 c 0.904161,-0.598746 1.644058,-1.102053 1.644213,-1.118456 4.12e-4,-0.04127 -3.274005,-2.2369128 -3.335945,-2.2369128 -0.06254,0 -3.3401221,2.1960828 -3.3385142,2.2369128 0.00176,0.04451 3.2842252,2.220047 3.3391162,2.213079 0.02596,-0.0033 0.786969,-0.495875 1.69113,-1.094623 z M 3.4770699,12.753992 c 0.6240995,-0.418304 1.1349899,-0.767261 1.1353116,-0.775464 8.233e-4,-0.02119 -2.2323499,-1.504163 -2.2826619,-1.515832 -0.035146,-0.0081 -0.041582,0.228775 -0.041582,1.531044 0,0.911375 0.011062,1.536624 0.027106,1.530744 0.014901,-0.0054 0.5377303,-0.352189 1.1618297,-0.770492 z M 21.734367,11.99025 c 0,-1.453618 -0.0029,-1.538096 -0.0522,-1.51927 -0.07004,0.02675 -2.273343,1.488566 -2.272229,1.507548 0.0011,0.01852 2.27117,1.545754 2.302054,1.548754 0.01224,0.0012 0.02236,-0.69047 0.02236,-1.537032 z M 8.801895,9.1707882 l 2.103565,-1.412568 0.0011,-2.2475619 c 10e-4,-2.0804858 -0.0025,-2.2461505 -0.04829,-2.2285961 C 10.831088,3.29249 9.8345467,3.947553 8.6437285,4.7377514 7.4529101,5.5279497 5.7420689,6.6626523 4.8418591,7.2593129 3.935475,7.8600644 3.2167906,8.3553267 3.2312817,8.3691997 c 0.014386,0.013752 0.7777707,0.523306 1.6963964,1.1322846 1.0092148,0.6690327 1.6900973,1.1022157 1.720432,1.0945537 0.027613,-0.0069 0.9968084,-0.6483376 2.1537689,-1.4252498 z m 10.296942,0.329268 C 20.015248,8.8914811 20.777068,8.3821872 20.79177,8.36829 20.806883,8.3540845 20.261528,7.9743628 19.539099,7.4961864 18.835427,7.0304262 17.11432,5.8888779 15.714417,4.9594144 14.314513,4.0299509 13.156911,3.2694813 13.141967,3.2694813 c -0.01612,0 -0.02676,0.9134838 -0.02616,2.2443687 l 10e-4,2.2443702 0.588045,0.3923722 c 0.323425,0.215804 1.278471,0.85668 2.122327,1.424168 0.843858,0.5674856 1.550296,1.0317956 1.569867,1.0317956 0.01957,0 0.785373,-0.497925 1.701784,-1.1064998 z"
     id="path11687" />
</svg>
