<?xml version="1.0" encoding="UTF-8" standalone="no"?>
<svg
   width="32px"
   height="32px"
   viewBox="0 0 32 32"
   version="1.1"
   id="svg137"
   sodipodi:docname="codewars.svg"
   inkscape:version="1.2 (dc2aedaf03, 2022-05-15)"
   xmlns:inkscape="http://www.inkscape.org/namespaces/inkscape"
   xmlns:sodipodi="http://sodipodi.sourceforge.net/DTD/sodipodi-0.dtd"
   xmlns="http://www.w3.org/2000/svg"
   xmlns:svg="http://www.w3.org/2000/svg">
  <defs
     id="defs141" />
  <sodipodi:namedview
     id="namedview139"
     pagecolor="#ffffff"
     bordercolor="#666666"
     borderopacity="1.0"
     inkscape:showpageshadow="2"
     inkscape:pageopacity="0.0"
     inkscape:pagecheckerboard="0"
     inkscape:deskcolor="#d1d1d1"
     showgrid="false"
     inkscape:zoom="14.75"
     inkscape:cx="19.627119"
     inkscape:cy="10.474576"
     inkscape:window-width="1920"
     inkscape:window-height="1080"
     inkscape:window-x="1920"
     inkscape:window-y="0"
     inkscape:window-maximized="1"
     inkscape:current-layer="svg137" />
  <path
     d="M 1.1360376,16.214359 1.0307258,16.161703 C 0.79377406,16.030064 0.6094783,15.832604 0.47783847,15.582488 0.2935427,15.240225 0.21455881,14.924289 0.21455881,14.595189 l 0.026328,-0.171131 c 0,-0.26328 0.0658199,-0.500232 0.18429576,-0.724019 l 0.10531187,-0.19746 c 0.0526559,-0.105312 0.13163983,-0.19746 0.19745974,-0.289607 0.0789839,-0.09215 0.0921479,-0.210624 0.0658199,-0.315936 L 0.72795414,12.686412 C 0.64897024,12.423133 0.59631431,12.159853 0.59631431,11.896574 l -0.039492,-0.157968 c 0,-0.289608 0.0789839,-0.579215 0.26327966,-0.789839 l 0.13163983,-0.171132 c 0.092148,-0.13164 0.23695165,-0.210623 0.39491945,-0.263279 0.1316399,-0.03949 0.2237878,-0.171132 0.2369517,-0.3291 L 1.609941,9.7376813 c 0,-0.355428 0.1711318,-0.684528 0.4344114,-0.921479 L 2.360288,8.5792503 c 0.06582,-0.06582 0.1316399,-0.13164 0.1842958,-0.236952 0.06582,-0.07898 0.078984,-0.1842954 0.06582,-0.2632793 -0.026328,-0.1316398 0,-0.1711318 0.06582,-0.1842957 0.2106238,0.078984 0.3422636,0.052656 0.4344115,-0.052656 L 3.2817668,7.6182796 3.7556702,7.0917203 C 3.8873101,6.9600805 3.939966,6.7231288 3.8609821,6.538833 L 3.7030143,6.1965695 c -0.026328,-0.078984 0,-0.1711318 0.06582,-0.1974598 0.1711318,0 0.2896076,0.06582 0.3422636,0.1711318 l 0.052656,0.092148 C 4.2427376,6.4203572 4.4270334,6.4993411 4.5586732,6.4335211 4.8482808,6.3282093 5.0852325,6.3018813 5.3090202,6.3018813 h 0.4212475 c 0.2896076,0 0.5265593,-0.1974597 0.5792152,-0.5002313 C 6.3621389,5.4330584 6.4937787,5.1434508 6.6780745,4.9459911 6.8755342,4.7222034 7.0993219,4.5510716 7.3626016,4.4194317 7.7048651,4.235136 7.9154889,3.9718563 7.9813088,3.6295928 8.0734567,3.2083453 8.2972444,2.9055737 8.600016,2.708114 L 9.6004787,2.1420627 9.8900863,1.9709309 C 10.061218,1.865619 10.219185,1.7339792 10.350825,1.5760114 l 0.26328,-0.3159355 c 0.13164,-0.1316398 0.26328,-0.2237877 0.421247,-0.26327971 0.13164,-0.039492 0.315936,-0.06582 0.473904,-0.052656 l 0.526559,0.039492 c 0.263279,0 0.473903,0.06582 0.684527,0.15796781 l 0.13164,0.06582 c 0.131639,0.052656 0.263279,0.026328 0.329099,-0.06582 l 0.118476,-0.06582 0.566051,-0.59237951 c 0.13164,-0.1316398 0.289608,-0.1842957 0.46074,-0.1579678 0.171131,0.026328 0.342263,0.092148 0.500231,0.1711318 0.236952,0.1316399 0.434411,0.1842958 0.658199,0.1842958 h 0.13164 c 0.289608,0 0.579215,0.039492 0.868823,0.1053118 l 0.19746,0.052656 c 0.197459,0.052656 0.394919,-0.026328 0.526559,-0.1842957 0.03949,-0.06582 0.13164,-0.078984 0.184296,-0.026328 0.03949,0.026328 0.05266,0.052656 0.06582,0.092148 0.02633,0.2632799 0.184295,0.46073961 0.394919,0.52655951 l 0.210624,0.06582 c 0.223788,0.06582 0.421247,0.2106237 0.552887,0.3949195 0.13164,0.1974597 0.289608,0.3949194 0.473903,0.5265593 l 0.13164,0.1316398 c 0.13164,0.1316398 0.315936,0.1842958 0.500232,0.1711318 h 0.776675 c 0.315935,0 0.618707,0.052656 0.921478,0.1842957 0.289608,0.1316399 0.59238,0.1579678 0.868823,0.052656 0.289608,-0.092148 0.59238,-0.1316399 0.895151,-0.092148 l 0.566051,0.092148 c 0.26328,0.026328 0.52656,0.1579678 0.684528,0.3554275 l 0.06582,0.06582 c 0.131639,0.1316399 0.263279,0.3027716 0.394919,0.4870674 0.07898,0.1711318 0.26328,0.2632797 0.447575,0.2632797 h 0.816167 c 0.19746,0 0.39492,0.039492 0.552888,0.1316398 0.171131,0.1316398 0.315935,0.2632797 0.447575,0.3949195 l 0.13164,0.1711318 c 0.157968,0.1842957 0.236952,0.4344114 0.223788,0.6976911 0,0.2106237 0.157967,0.3949194 0.368591,0.3949194 l 0.26328,0.026328 c 0.184296,0 0.342263,0.1316399 0.434411,0.3027716 l 0.13164,0.2632797 0.342264,0.763511 c 0.05266,0.1316399 0.06582,0.2632797 0.05266,0.3685915 0,0.1316399 0.03949,0.2369517 0.131639,0.2896077 l 0.13164,0.092148 c 0.171132,0.1316399 0.26328,0.3290996 0.236952,0.5528876 l -0.09215,0.618707 -0.02633,0.26328 c -0.02633,0.131639 0.03949,0.302771 0.157968,0.394919 0.19746,0.13164 0.289607,0.302772 0.302771,0.5002307 v 0.26328 c 0,0.13164 -0.02633,0.289607 -0.131639,0.394919 -0.07898,0.105312 -0.13164,0.236952 -0.13164,0.39492 l 0.03949,0.302771 c 0,0.210624 0.13164,0.39492 0.263279,0.52656 0.184296,0.131639 0.289608,0.342263 0.315936,0.552886 0.05266,0.3291 0.06582,0.59238 0.06582,0.855659 v 0.302771 c 0,0.105312 0,0.210624 0.03949,0.315936 0.02633,0.09215 0.09215,0.184296 0.171132,0.236952 l 0.263279,0.197459 c 0.26328,0.171132 0.447577,0.39492 0.552889,0.697692 0.13164,0.289607 0.171132,0.592379 0.171132,0.89515 v 0.105312 c 0,0.236952 -0.02633,0.487068 -0.105312,0.710855 -0.06582,0.236952 -0.05266,0.46074 0.03949,0.6582 0.105312,0.184295 0.171132,0.394919 0.19746,0.618707 0.05266,0.263279 0.02633,0.526559 -0.06582,0.737183 l -0.02633,0.09215 c -0.06582,0.157967 -0.171132,0.302771 -0.302772,0.421247 -0.13164,0.13164 -0.263281,0.210624 -0.342265,0.302772 -0.07898,0.07898 -0.13164,0.210623 -0.09215,0.329099 l 0.03949,0.184296 c 0.06582,0.26328 0.06582,0.526559 0,0.763511 v 0.105312 c -0.05266,0.19746 -0.13164,0.368591 -0.210623,0.526559 -0.09215,0.171132 -0.223788,0.302772 -0.39492,0.39492 l -0.19746,0.13164 c -0.09215,0.05266 -0.157968,0.171131 -0.157968,0.289607 0,0.13164 -0.05265,0.26328 -0.131639,0.342264 l -0.19746,0.263279 c -0.13164,0.171132 -0.302772,0.315936 -0.487067,0.39492 -0.184296,0.13164 -0.342264,0.26328 -0.46074,0.394919 -0.13164,0.157968 -0.236952,0.342264 -0.289608,0.52656 -0.05266,0.236951 -0.236951,0.368591 -0.434411,0.368591 h -0.710855 c -0.184296,0 -0.355428,0.13164 -0.434411,0.289608 -0.09215,0.210624 -0.184296,0.355427 -0.302772,0.487067 -0.13164,0.13164 -0.210624,0.289608 -0.26328,0.473904 -0.02633,0.157967 -0.157968,0.263279 -0.289607,0.210623 -0.171132,-0.07898 -0.342264,0 -0.421248,0.13164 -0.157968,0.26328 -0.315935,0.46074 -0.487067,0.631871 l -0.09215,0.07898 c -0.171132,0.13164 -0.39492,0.236952 -0.592379,0.236952 -0.236952,0 -0.355428,0.105312 -0.39492,0.26328 -0.03949,0.131639 -0.06582,0.302771 -0.07898,0.447575 -0.02633,0.157968 -0.07898,0.302772 -0.13164,0.434411 l -0.06582,0.07898 c -0.13164,0.19746 -0.236952,0.39492 -0.368592,0.566052 l -0.05266,0.07898 c -0.171132,0.223787 -0.394919,0.394919 -0.658199,0.460739 -0.315936,0.105312 -0.592379,0.13164 -0.868823,0.13164 h -0.184296 c -0.13164,0 -0.263279,0.07898 -0.355427,0.210624 l -0.07898,0.131639 -0.07898,0.157968 -0.171132,0.289608 c -0.13164,0.236951 -0.329099,0.394919 -0.592379,0.473903 -0.26328,0.06582 -0.566051,0.09215 -0.842495,0.07898 l -0.210624,-0.02633 c -0.184295,0 -0.355427,-0.05266 -0.526559,-0.13164 -0.13164,-0.05266 -0.315936,0 -0.394919,0.13164 -0.13164,0.184296 -0.289608,0.289608 -0.46074,0.342264 l -0.394919,0.131639 c -0.26328,0.06582 -0.552888,0.06582 -0.829331,0 l -0.210624,-0.06582 c -0.13164,0 -0.26328,-0.06582 -0.368592,-0.13164 -0.131639,-0.06582 -0.263279,-0.09215 -0.394919,-0.07898 l -0.171132,0.02633 c -0.263279,0.02633 -0.500231,0 -0.737183,-0.06582 l -0.355427,-0.07898 c -0.157968,-0.05266 -0.302772,-0.157968 -0.39492,-0.302772 -0.06582,-0.131639 -0.210624,-0.236951 -0.394919,-0.263279 H 13.16791 c -0.26328,-0.03949 -0.500231,-0.13164 -0.658199,-0.3291 l -0.526559,-0.500231 -0.184296,-0.157968 -0.289607,-0.210624 -0.171132,-0.13164 c -0.19746,-0.131639 -0.434411,-0.236951 -0.684527,-0.263279 l -0.7898387,-0.13164 c -0.078984,0 -0.1316398,-0.02633 -0.2106237,-0.03949 L 9.350363,28.772799 C 9.2187232,28.746471 9.0870833,28.641159 8.9949355,28.509519 8.9159516,28.37788 8.7711478,28.325224 8.6395079,28.37788 8.3762283,28.483191 8.1656045,28.509519 7.9549808,28.549011 H 7.770685 C 7.4284215,28.575339 7.1124859,28.522683 6.7965503,28.37788 6.4806147,28.24624 6.269991,28.04878 6.0725312,27.798664 5.9145634,27.574877 5.6776117,27.403745 5.3880041,27.351089 L 5.0194126,27.272105 C 4.7561329,27.219449 4.4928533,27.114137 4.2559016,26.956169 3.9926219,26.771874 3.8609821,26.600742 3.7556702,26.390118 3.6503584,26.192658 3.5845384,25.968871 3.5713745,25.731919 V 25.626607 C 3.5450465,25.363327 3.3607507,25.126376 3.1106351,25.060556 2.8078635,24.968408 2.5840757,24.836768 2.386616,24.665636 2.2023202,24.494505 2.0970084,24.244389 2.0970084,23.981109 l 0.026328,-0.579215 c 0,-0.223788 -0.06582,-0.421247 -0.2237877,-0.566051 C 1.7415808,22.677875 1.636269,22.480415 1.636269,22.269791 L 1.596777,21.795888 C 1.5704491,21.453625 1.5046291,21.111361 1.4256452,20.769097 1.3466613,20.466326 1.4651372,20.163554 1.7152529,20.01875 l 0.092148,-0.06582 C 1.9390408,19.86078 1.9916967,19.689651 1.9127128,19.531683 L 1.8074007,19.400043 C 1.6757609,19.268403 1.5441211,19.176255 1.4124813,19.136764 1.3071694,19.110436 1.2808414,19.005124 1.2808414,18.939304 l 0.1316399,-0.157968 c 0.078984,-0.09215 0.06582,-0.236952 0,-0.315936 C 1.3071694,18.360089 1.2545134,18.228449 1.2413494,18.096809 L 1.2150214,17.17533 c 0,-0.184296 0.026328,-0.368591 0.078984,-0.552887 0.052656,-0.157968 0,-0.342264 -0.1579678,-0.421248 z M 14.16838,14.476714 c 0.09215,-0.09215 0.07898,-0.26328 0,-0.3291 -0.13164,-0.105312 -0.223788,-0.223788 -0.302772,-0.355428 l -0.13164,-0.210623 c -0.09215,-0.171132 -0.210623,-0.315935 -0.342263,-0.447575 l -0.02633,-0.02633 c -0.13164,-0.105312 -0.223788,-0.236952 -0.302772,-0.39492 -0.06582,-0.131639 -0.06582,-0.263279 0,-0.394919 l 0.07898,-0.13164 c 0.07898,-0.131639 0.13164,-0.315935 0.13164,-0.473903 v -0.05266 c 0,-0.13164 -0.05266,-0.26328 -0.13164,-0.394919 -0.05266,-0.105312 -0.105312,-0.236952 -0.13164,-0.368592 v -0.07898 c -0.03949,-0.157968 0,-0.329099 0.105312,-0.460739 0.105312,-0.171132 0.184296,-0.3291 0.223788,-0.5265587 v -0.02633 c 0.05266,-0.13164 0.02633,-0.302772 -0.05266,-0.434412 -0.07898,-0.13164 -0.105312,-0.26328 -0.05266,-0.421247 l 0.09215,-0.26328 c 0.07898,-0.236952 0.19746,-0.447575 0.355427,-0.6318712 l 0.184296,-0.1974598 0.13164,-0.1579678 0.07898,-0.078984 c 0.07898,-0.078984 0.09215,-0.2106237 0.02633,-0.3159356 -0.06582,-0.1316398 -0.105312,-0.2632796 -0.07898,-0.3949195 l 0.02633,-0.1842957 c 0.03949,-0.2632797 0.13164,-0.5265593 0.302772,-0.7371831 l 0.05266,-0.052656 c 0.197459,-0.2632777 0.447575,-0.4344094 0.737183,-0.5265573 l 0.355427,-0.1316399 c 0.157968,-0.052656 0.26328,-0.2237877 0.26328,-0.3949194 0,-0.2106238 0.06582,-0.3949195 0.184296,-0.5660513 l 0.06582,-0.06582 c 0.13164,-0.2237877 0.289608,-0.4475755 0.39492,-0.6845271 l 0.09215,-0.1711318 c 0.02633,-0.039492 0.03949,-0.092148 0.03949,-0.1316399 0,-0.2237877 -0.13164,-0.4212474 -0.342264,-0.4344114 l -0.579215,-0.039492 c -0.3291,-0.026328 -0.658199,0 -0.974135,0 l -1.118938,0.1316398 c -0.171132,0 -0.302772,0.1316398 -0.315936,0.3159356 0,0.1842957 -0.13164,0.3422635 -0.289608,0.3949195 l -0.473903,0.1316398 -0.13164,0.039492 -0.394919,0.1316399 c -0.289607,0.092148 -0.526559,0.3027716 -0.658199,0.5923792 l -0.105312,0.1711318 c -0.13164,0.2896076 -0.355427,0.5265593 -0.631871,0.6976911 -0.26328,0.1711318 -0.394919,0.4475754 -0.421247,0.763511 V 6.2887173 C 10.074382,6.551997 9.9953982,6.8152767 9.8374304,6.9995724 l -0.06582,0.1053119 c -0.1053119,0.1316398 -0.1316399,0.3027716 -0.06582,0.4475754 0.06582,0.1579678 0.1053119,0.3290996 0.092148,0.5002314 v 0.6976912 c 0,0.184296 -0.1316398,0.342263 -0.2632796,0.394919 -0.1842958,0.06582 -0.3027716,0.210624 -0.3554276,0.39492 l -0.06582,0.263279 c -0.052656,0.2632797 0.039492,0.5265597 0.2632797,0.6845277 0.2106237,0.157967 0.3422635,0.394919 0.3949195,0.684527 v 0.236951 c 0.039492,0.26328 0.1842957,0.52656 0.4212476,0.6582 0.236951,0.157967 0.421247,0.394919 0.526559,0.658198 l 0.06582,0.210624 c 0.105312,0.289608 0.342263,0.460739 0.605543,0.487067 h 0.07898 c 0.236952,0 0.447575,0.13164 0.579215,0.342263 0.131639,0.210624 0.342263,0.355428 0.579215,0.39492 l 0.368591,0.105312 c 0.223788,0.06582 0.434412,0.184296 0.605544,0.355427 l 0.02633,0.02633 c 0.131639,0.105312 0.342263,0.09215 0.460739,-0.05266 l 0.09215,-0.105311 z m 1.500694,-1.211086 c 0.13164,0.07898 0.26328,0.03949 0.315936,-0.07898 l 0.03949,-0.06582 c 0.09215,-0.184296 0.210624,-0.368592 0.342264,-0.52656 l 0.26328,-0.394919 c 0.03949,0 0.05266,-0.02633 0.06582,-0.05266 l 0.315935,-0.421247 c 0.13164,-0.13164 0.289608,-0.223788 0.473904,-0.223788 0.171131,0 0.315935,-0.09215 0.394919,-0.263279 0.05266,-0.184296 0.13164,-0.355428 0.289608,-0.500232 l 0.06582,-0.07898 c 0.131639,-0.131639 0.263279,-0.197459 0.394919,-0.263279 0.171132,-0.02633 0.3291,-0.05266 0.487067,-0.05266 h 0.39492 c 0.157968,0 0.289608,-0.06582 0.368591,-0.19746 0.07898,-0.13164 0.19746,-0.2237877 0.3291,-0.2896077 l 0.13164,-0.05266 c 0.210624,-0.09215 0.447575,-0.157967 0.684527,-0.184295 l 0.26328,-0.02633 c 0.157967,0 0.329099,0 0.487067,0.09215 0.13164,0.09215 0.302772,0.07898 0.434411,-0.02633 l 0.09215,-0.05266 c 0.19746,-0.13164 0.421248,-0.236952 0.658199,-0.26328 h 0.02633 c 0.26328,-0.05266 0.500232,-0.05266 0.763511,-0.03949 h 0.13164 c 0.26328,0.03949 0.487068,0.13164 0.658199,0.3291 l 0.03949,0.05266 c 0.13164,0.131639 0.342264,0.236951 0.52656,0.236951 h 0.223787 c 0.06582,0 0.13164,-0.02633 0.171132,-0.09215 0.03949,-0.03949 0.105312,-0.07898 0.171132,-0.07898 h 0.13164 c 0.184296,0 0.355427,0.05266 0.526559,0.105312 l 0.223788,0.09215 c 0.210624,0.06582 0.434411,0.1316397 0.658199,0.1579677 h 0.157968 c 0.105312,0 0.171132,-0.06582 0.171132,-0.1579677 0,-0.13164 -0.02633,-0.26328 -0.09215,-0.368591 l -0.09215,-0.210624 c -0.105312,-0.171132 -0.184296,-0.355427 -0.26328,-0.526559 l -0.02633,-0.06582 c -0.06582,-0.13164 -0.06582,-0.26328 0,-0.39492 v -0.06582 c 0.02633,-0.105311 -0.02632,-0.2237873 -0.131635,-0.2632792 h -0.105311 c -0.210624,-0.06582 -0.39492,-0.1842958 -0.52656,-0.3554276 L 26.173932,7.5656237 C 26.042293,7.4339839 25.963309,7.2365241 25.910653,7.0390644 25.844833,6.8679326 25.700029,6.7362928 25.515733,6.7362928 H 24.962846 C 24.765386,6.7099648 24.594254,6.6046529 24.475779,6.4466851 l -0.05266,-0.06582 C 24.330975,6.2492254 24.251991,6.0912576 24.199335,5.9332898 24.133515,5.80165 23.988711,5.7226661 23.857071,5.762158 l -0.157967,0.052656 c -0.26328,0.092148 -0.52656,0.1316399 -0.789839,0.1053119 l -0.210624,-0.026328 c -0.223788,0 -0.434412,-0.092148 -0.605543,-0.2237877 l -0.13164,-0.092148 c -0.105312,-0.078984 -0.210624,-0.1316399 -0.3291,-0.1842958 -0.13164,-0.052656 -0.236951,-0.026328 -0.315935,0.06582 l -0.06582,0.078984 c -0.13164,0.1316398 -0.315936,0.2369517 -0.500232,0.2632797 l -0.710855,0.039492 c -0.13164,0 -0.263279,0.06582 -0.355427,0.1579678 -0.105312,0.092148 -0.223788,0.1579678 -0.355428,0.1842958 h -0.02633 c -0.13164,0 -0.263279,0.092148 -0.394919,0.1842957 v 0.026328 c -0.13164,0.1316398 -0.302772,0.1974597 -0.473904,0.1974597 l -0.05266,0.026328 c -0.157967,0 -0.315935,0 -0.473903,0.039492 h -0.157962 c -0.223787,0.039492 -0.394919,0.2237877 -0.447575,0.4607394 l -0.05266,0.3027716 c -0.03949,0.2106237 -0.13164,0.3949195 -0.26328,0.5660512 -0.13164,0.1579678 -0.289607,0.26328 -0.487067,0.26328 h -0.19746 -0.02633 c -0.13164,0.02633 -0.26328,0.171132 -0.236952,0.329099 0.02633,0.223788 0,0.421248 -0.03949,0.618708 l -0.05265,0.223787 c -0.05266,0.19746 -0.184296,0.355428 -0.355428,0.421248 l -0.07898,0.03949 h -0.02633 c -0.07898,0.05266 -0.13164,0.1711307 -0.06582,0.2632787 0.07898,0.13164 0.105312,0.26328 0.09215,0.39492 l -0.03949,0.421247 c 0,0.157968 -0.06582,0.302772 -0.13164,0.434411 -0.07898,0.13164 -0.07898,0.26328 -0.02633,0.39492 l 0.13164,0.289608 c 0.06582,0.131639 0.07898,0.263279 0.03949,0.421247 -0.03949,0.131639 -0.06582,0.263279 -0.05266,0.394919 0,0.13164 0.07898,0.26328 0.184296,0.315936 l 0.02633,0.02633 z m 10.399546,9.517559 c 0.13164,0.13164 0.3291,0.184296 0.487068,0.07898 l 0.26328,-0.171132 c 0.131639,-0.09215 0.236951,-0.223788 0.289607,-0.39492 v -0.02633 l 0.13164,-0.394919 0.07898,-0.13164 0.05266,-0.13164 0.05266,-0.09215 c 0.05266,-0.105311 0.13164,-0.184295 0.263279,-0.223787 l 0.05266,-0.02633 c 0.105312,-0.02633 0.171132,-0.13164 0.171132,-0.236952 0,-0.13164 0.06582,-0.236952 0.13164,-0.3291 l 0.105312,-0.09215 0.263279,-0.342264 v -0.02633 c 0.07898,-0.105312 0.13164,-0.223788 0.157968,-0.355427 0.02633,-0.13164 0,-0.26328 -0.05266,-0.39492 l -0.02633,-0.05266 c -0.05266,-0.13164 -0.07898,-0.223788 -0.09215,-0.342263 l -0.03949,-0.368592 -0.03949,-0.394919 c 0,-0.13164 0.05266,-0.26328 0.131639,-0.39492 0.09215,-0.105312 0.157968,-0.236952 0.210624,-0.368591 v -0.05266 l 0.02633,-0.02633 c 0.02633,-0.13164 -0.03949,-0.26328 -0.157968,-0.26328 -0.13164,-0.06582 -0.263279,-0.171132 -0.302771,-0.3291 l -0.03949,-0.07898 c -0.06582,-0.236952 -0.105312,-0.473904 -0.105312,-0.710856 l 0.02633,-0.658199 v -0.03949 c 0,-0.223787 -0.184296,-0.394919 -0.39492,-0.394919 h -0.02633 c -0.263279,0 -0.473903,-0.07898 -0.658199,-0.26328 l -0.105312,-0.13164 -0.263279,-0.302771 -0.342264,-0.39492 c -0.13164,-0.184296 -0.263279,-0.342263 -0.434411,-0.500231 -0.13164,-0.13164 -0.3291,-0.263279 -0.52656,-0.289607 l -0.263279,-0.03949 c -0.13164,-0.02633 -0.302772,-0.09215 -0.447576,-0.184296 -0.105312,-0.07898 -0.263279,-0.05266 -0.368591,0.05266 l -0.171132,0.184296 -0.07898,0.05266 c -0.09215,0.02633 -0.184296,-0.02633 -0.223788,-0.13164 -0.05266,-0.157968 -0.05266,-0.342264 0.02633,-0.500231 v -0.07898 c 0,-0.09215 -0.07898,-0.157968 -0.157967,-0.13164 h -0.210624 c -0.236952,0 -0.473904,-0.02633 -0.697691,-0.13164 l -0.13164,-0.05266 c -0.13164,-0.06582 -0.289608,-0.105312 -0.434412,-0.105312 -0.131639,0 -0.263279,0.02633 -0.394919,0.105312 l -0.05266,0.03949 c -0.157968,0.105312 -0.342263,0.157967 -0.526559,0.171131 h -0.434421 c -0.197459,0 -0.394919,0.06582 -0.526559,0.171132 -0.171132,0.105312 -0.355428,0.171132 -0.552887,0.210624 l -0.355428,0.05266 c -0.157968,0.03949 -0.329099,0.105312 -0.473903,0.223788 -0.13164,0.131639 -0.315936,0.210623 -0.487068,0.263279 l -0.06582,0.02633 c -0.210623,0.06582 -0.394919,0.19746 -0.526559,0.39492 l -0.157968,0.157967 c -0.09215,0.13164 -0.09215,0.289608 0,0.421248 0.07898,0.13164 0.236952,0.171132 0.39492,0.13164 l 0.19746,-0.07898 c 0.105311,-0.03949 0.223787,0 0.315935,0.05266 0.07898,0.06582 0.19746,0.105311 0.315936,0.09215 l 0.329099,-0.03949 c 0.184296,0 0.368592,0 0.552888,0.05265 0.197459,0.06582 0.368591,0.13164 0.526559,0.26328 0.157968,0.13164 0.3291,0.184296 0.526559,0.210624 0.19746,0.02633 0.39492,0.06582 0.579216,0.13164 l 0.131639,0.02633 c 0.13164,0.03949 0.236952,0.13164 0.315936,0.263279 0.06582,0.105312 0.13164,0.26328 0.13164,0.39492 v 0.03949 c 0,0.157968 0.13164,0.263279 0.263279,0.263279 h 0.07898 c 0.210624,0 0.434412,0.02633 0.658199,0.09215 l 0.09215,0.03949 c 0.13164,0.05266 0.26328,0.13164 0.355428,0.26328 0.105312,0.13164 0.171132,0.26328 0.210624,0.394919 l 0.03949,0.184296 c 0.03949,0.19746 0.05266,0.39492 0.05266,0.605543 v 0.06582 c 0,0.13164 0.09215,0.26328 0.236951,0.315936 0.13164,0.02633 0.289608,0.07898 0.434412,0.157968 l 0.06582,0.02633 c 0.171131,0.105312 0.342263,0.236951 0.473903,0.394919 l 0.06582,0.09215 c 0.171132,0.19746 0.26328,0.447575 0.26328,0.697691 v 0.09215 c 0,0.19746 -0.03949,0.39492 -0.105312,0.579215 -0.05266,0.157968 0,0.342264 0.171131,0.39492 l 0.09215,0.06582 c 0.19746,0.07898 0.368592,0.223787 0.500232,0.394919 0.13164,0.19746 0.184295,0.421248 0.184295,0.658199 v 0.39492 c -0.02633,0.13164 -0.06582,0.236951 -0.131639,0.329099 -0.06582,0.09215 -0.06582,0.223788 0,0.315936 l 0.07898,0.13164 z m -8.424949,-6.739959 h -0.02633 c -0.05266,0 -0.07898,0.06582 -0.06582,0.131639 l 0.05266,0.26328 c 0.05266,0.210624 0.07898,0.421247 0.105312,0.631871 0.02633,0.210624 0.13164,0.39492 0.289608,0.52656 h 0.05266 c 0.19746,0.157967 0.315935,0.394919 0.329099,0.631871 v 0.658199 c -0.02633,0.13164 0,0.26328 0.07898,0.368591 l 0.06582,0.06582 c 0.13164,0.157968 0.184296,0.342264 0.19746,0.52656 l 0.03949,0.724019 c 0,0.171131 -0.105312,0.315935 -0.26328,0.342263 l -0.13164,0.02633 c -0.09215,0 -0.131639,0.105312 -0.131639,0.19746 0,0.105312 0.03949,0.223788 0.07898,0.3291 v 0.02633 c 0.03949,0.13164 0.05266,0.26328 0.03949,0.39492 l -0.05265,0.355428 c -0.05266,0.263279 -0.13164,0.500231 -0.26328,0.737183 l -0.09215,0.157967 c -0.06582,0.13164 -0.157968,0.210624 -0.26328,0.26328 -0.13164,0.05266 -0.223787,0.157968 -0.263279,0.289608 l -0.105312,0.473903 c -0.06582,0.26328 -0.184296,0.526559 -0.342264,0.789839 h -0.02633 c -0.157968,0.210624 -0.355427,0.394919 -0.592379,0.526559 l -0.157968,0.105312 -0.394919,0.19746 c -0.13164,0.05266 -0.210624,0.171132 -0.236952,0.315936 l -0.06582,0.434411 c -0.03949,0.26328 -0.13164,0.487067 -0.315935,0.658199 l -0.171132,0.19746 -0.19746,0.19746 -0.19746,0.210623 c -0.157968,0.184296 -0.394919,0.26328 -0.658199,0.223788 l -0.473903,-0.09215 -0.434412,-0.05266 h -0.118476 c -0.05266,0.05266 -0.06582,0.13164 -0.02633,0.210624 0.09215,0.157968 0.236952,0.26328 0.39492,0.26328 l 0.289608,0.05266 c 0.131639,0 0.289607,0.06582 0.421247,0.131639 0.13164,0.09215 0.26328,0.157968 0.421248,0.19746 h 0.02633 c 0.171132,0.06582 0.355428,0.07898 0.52656,0.06582 l 0.19746,-0.02633 c 0.223787,-0.02633 0.434411,0 0.618707,0.07898 l 0.157968,0.05266 c 0.06582,0.02633 0.171131,0 0.236951,-0.06582 0.07898,-0.07898 0.157968,-0.13164 0.26328,-0.171132 l 0.105312,-0.02633 c 0.171132,-0.05266 0.342263,-0.07898 0.526559,-0.07898 h 0.105312 c 0.157968,0 0.302772,0.02633 0.434411,0.105312 l 0.05266,0.02633 c 0.09215,0.03949 0.19746,0 0.26328,-0.07898 0.03949,-0.09215 0.13164,-0.184295 0.223788,-0.263279 l 0.329099,-0.223788 0.210624,-0.13164 0.105312,-0.06582 c 0.13164,-0.09215 0.315935,-0.13164 0.473903,-0.13164 l 0.473904,-0.03949 c 0.184295,-0.02633 0.342263,-0.157967 0.394919,-0.342263 0.05266,-0.19746 0.13164,-0.39492 0.26328,-0.566051 0.13164,-0.171132 0.263279,-0.315936 0.394919,-0.447576 0.171132,-0.13164 0.342264,-0.19746 0.52656,-0.210624 h 0.105311 c 0.210624,-0.03949 0.368592,-0.236951 0.355428,-0.447575 v -0.02633 -0.855659 c 0.02633,-0.13164 0.07898,-0.302771 0.157968,-0.434411 l 0.263279,-0.39492 0.105312,-0.13164 c 0.07898,-0.06582 0.13164,-0.157967 0.223788,-0.263279 l 0.13164,-0.171132 c 0.07898,-0.13164 0.07898,-0.302772 -0.02633,-0.421248 -0.13164,-0.131639 -0.19746,-0.315935 -0.223788,-0.500231 v -0.05266 c -0.02633,-0.210624 -0.02633,-0.434411 0.03949,-0.658199 v -0.06582 c 0.06582,-0.171132 0.157968,-0.342263 0.26328,-0.500231 0.105312,-0.13164 0.09215,-0.315936 -0.03949,-0.421248 l -0.223789,-0.197464 c -0.184296,-0.157968 -0.289607,-0.39492 -0.315935,-0.631872 l -0.02633,-0.263279 c 0,-0.07898 0,-0.171132 -0.02633,-0.26328 l -0.02633,-0.19746 c -0.02633,-0.223787 -0.157968,-0.394919 -0.342264,-0.526559 l -0.09215,-0.02633 c -0.131632,-0.07898 -0.263271,-0.197458 -0.368583,-0.355426 -0.105312,-0.131639 -0.157968,-0.315935 -0.19746,-0.500231 l -0.03949,-0.223788 c 0,-0.07898 -0.05266,-0.131639 -0.13164,-0.171131 l -0.210624,-0.06582 -0.421247,-0.13164 c -0.13164,-0.02633 -0.26328,-0.13164 -0.355428,-0.223788 h -0.02633 c -0.07898,-0.105312 -0.210623,-0.105312 -0.289607,-0.02633 l -0.13164,0.13164 c -0.02633,0.03949 -0.05266,0.05266 -0.09215,0.03949 -0.07898,0 -0.13164,-0.06582 -0.105312,-0.13164 0.02633,-0.210624 -0.05266,-0.421247 -0.223787,-0.552887 l -0.171132,-0.13164 -0.39492,-0.26328 c -0.105312,-0.03949 -0.263279,0 -0.315935,0.13164 l -0.05266,0.07898 c 0,0.02633 -0.03949,0.03949 -0.05266,0.05266 -0.05266,0 -0.13164,0 -0.13164,-0.06582 l -0.03949,-0.06582 c -0.03949,-0.07898 -0.13164,-0.13164 -0.210624,-0.157968 z m -1.579678,1.316398 -0.06582,-0.06582 c -0.06582,-0.05266 -0.131639,-0.03949 -0.197459,0.02633 -0.09215,0.157968 -0.171132,0.329099 -0.210624,0.500231 v 0.02633 c -0.03949,0.171132 -0.19746,0.289608 -0.355428,0.26328 h -0.131639 -0.02633 c -0.184296,0 -0.3291,0.157968 -0.3291,0.342263 0,0.236952 -0.07898,0.473904 -0.223788,0.6582 l -0.07898,0.07898 c -0.131639,0.171132 -0.329099,0.289608 -0.526559,0.355428 l -0.105312,0.02633 c -0.13164,0.03949 -0.236951,0.13164 -0.263279,0.289608 0,0.131639 -0.07898,0.263279 -0.184296,0.368591 l -0.13164,0.105312 c -0.157968,0.171132 -0.394919,0.26328 -0.631871,0.289608 l -0.658199,0.06582 c -0.210623,0 -0.394919,0.131639 -0.526559,0.329099 -0.13164,0.19746 -0.3291,0.3291 -0.526559,0.355428 l -0.289608,0.02633 c -0.210624,0.02633 -0.434411,0.02633 -0.6581988,-0.02633 l -0.1316418,-0.02633 -0.3554275,-0.09215 c -0.1316399,-0.03949 -0.2369517,0 -0.3159356,0.09215 l -0.1316399,0.171129 c -0.1711317,0.19746 -0.4212474,0.289608 -0.6581991,0.26328 L 7.4942414,21.677412 c -0.1316398,0 -0.2369517,-0.06582 -0.3554275,-0.13164 C 7.007174,21.466792 6.9150261,21.374641 6.8228783,21.282493 l -0.3290996,-0.39492 c -0.039492,-0.02633 -0.1053119,-0.03949 -0.1711318,-0.02633 l -0.1842957,0.07898 -0.7371831,0.184296 c -0.1316398,0.03949 -0.3027716,0 -0.4344114,-0.07898 C 4.8351168,20.940227 4.677149,20.913899 4.5191812,20.913899 H 4.3480495 c -0.1579678,0.03949 -0.2632797,0.210624 -0.2106238,0.368592 l 0.052656,0.263279 c 0.039492,0.13164 0.026328,0.289608 -0.039492,0.421248 -0.06582,0.13164 -0.052656,0.26328 0.039492,0.394919 l 0.078984,0.105312 c 0.1053118,0.157968 0.2632796,0.289608 0.3949195,0.421248 0.1316398,0.13164 0.2632796,0.263279 0.3685915,0.434411 l 0.1974597,0.355428 c 0.1053119,0.184295 0.2632797,0.289607 0.4739034,0.289607 0.1974598,0 0.3949195,0.06582 0.5528873,0.19746 l 0.3949195,0.368592 c 0.1053119,0.09215 0.2632796,0.105311 0.3685915,0.02633 l 0.06582,-0.02633 c 0.078984,0 0.1316399,0.05265 0.1316399,0.131639 v 0.06582 c 0,0.171132 0.1316398,0.3291 0.3027716,0.39492 l 0.5923792,0.13164 c 0.2106237,0.06582 0.4212475,0.131639 0.6187072,0.263279 h 0.1053119 c 0.1053118,0 0.1974597,-0.09215 0.1842957,-0.210623 v -0.46074 c 0,-0.13164 0.052656,-0.26328 0.1579678,-0.315935 l 0.06582,-0.02633 c 0.06582,0.02633 0.1316399,0.07898 0.1053119,0.131639 v 0.223788 c 0,0.171132 0.052656,0.3291 0.1711318,0.447576 0.1316398,0.131639 0.3027716,0.157967 0.4475754,0.105311 0.1579675,-0.06582 0.3159345,-0.07898 0.4870665,-0.06582 l 0.487068,0.02633 c 0.236951,0.02633 0.460739,0 0.658199,-0.09215 0.236951,-0.07898 0.434411,-0.184296 0.618706,-0.3291 l 0.07898,-0.05266 0.39492,-0.355427 c 0.13164,-0.13164 0.302771,-0.19746 0.460739,-0.19746 h 0.526559 c 0.26328,-0.02633 0.500232,-0.26328 0.52656,-0.52656 l 0.05266,-0.263279 c 0,-0.171132 0.07898,-0.3291 0.197459,-0.46074 0.13164,-0.131639 0.26328,-0.210623 0.39492,-0.263279 l 0.157968,-0.06582 c 0.223787,-0.09215 0.394919,-0.289608 0.473903,-0.526559 l 0.07898,-0.315936 c 0.06582,-0.26328 0.19746,-0.526559 0.39492,-0.697691 l 0.02633,-0.02633 c 0.157967,-0.13164 0.184295,-0.39492 0.07898,-0.579215 l -0.03949,-0.09215 c -0.09215,-0.13164 -0.105311,-0.3291 -0.03949,-0.500232 0.06582,-0.184295 0.131639,-0.342263 0.236951,-0.500231 l 0.13164,-0.184296 c 0.05266,-0.105312 0.05266,-0.263279 -0.02633,-0.355427 -0.07898,-0.105312 -0.13164,-0.236952 -0.13164,-0.368592 l -0.02633,-0.184296 v -0.447575 c 0.02633,-0.13164 0,-0.302772 -0.03949,-0.434411 l -0.05266,-0.157968 z m -1.882449,-1.000463 v -0.03949 c 0,-0.13164 -0.07898,-0.210624 -0.184296,-0.210624 h -0.342263 c -0.13164,0.02633 -0.26328,0.02633 -0.368592,0 h -0.592379 c -0.302772,0 -0.592379,-0.05266 -0.881987,-0.131639 l -0.315935,-0.07898 -0.26328,-0.07898 -0.592379,-0.19746 C 10.324497,15.52984 10.087546,15.319218 9.9427422,15.029611 l -0.06582,-0.13164 c -0.092148,-0.19746 -0.2896076,-0.302772 -0.4870673,-0.26328 -0.2237878,0 -0.4475755,0 -0.6581992,-0.105312 L 8.573688,14.46355 C 8.2709164,14.33191 8.0471287,14.06863 8.0471287,13.713203 L 7.9944728,13.357775 C 7.9549808,13.17348 7.836505,13.002348 7.6785372,12.936528 7.4942414,12.857544 7.3231096,12.752232 7.1519778,12.633756 l -0.06582,-0.03949 C 6.8886982,12.436297 6.7175664,12.225673 6.6254185,11.975558 l -0.026328,-0.07898 c -0.06582,-0.210624 -0.078984,-0.434412 -0.026328,-0.658199 l 0.026328,-0.07898 c 0.052656,-0.171132 0.06582,-0.342264 0.06582,-0.52656 0,-0.157967 -0.06582,-0.315935 -0.1842958,-0.434411 L 6.2963189,10.027288 C 6.0856952,9.8561563 5.9540554,9.6060413 5.9408914,9.3295973 5.9145634,9.0399893 5.9145634,8.7635463 5.9672194,8.4871023 v -0.03949 -0.03949 c 0,-0.157968 -0.1316399,-0.2632795 -0.2632797,-0.2632795 h -0.039492 c -0.1711318,0 -0.3159356,0.1053115 -0.3949195,0.2632795 -0.06582,0.184296 -0.1711317,0.3291 -0.2896076,0.473904 l -0.052656,0.06582 -0.2632796,0.263279 -0.1316399,0.13164 c -0.1316398,0.13164 -0.2106237,0.3291 -0.2369517,0.526559 -0.026328,0.1974597 -0.078984,0.3949197 -0.1579678,0.5792157 l -0.026328,0.06582 c -0.06582,0.157967 -0.1711318,0.302771 -0.3027716,0.394919 -0.1316399,0.105312 -0.2237878,0.26328 -0.2237878,0.421248 l -0.026328,0.605543 c 0,0.263279 -0.039492,0.526559 -0.1316398,0.789838 l -0.026328,0.105308 c -0.06582,0.171132 0,0.355428 0.1579678,0.434412 l 0.5528873,0.236951 0.052656,0.02633 c 0.039492,0 0.052656,0.02633 0.06582,0.06582 0.039492,0.05266 0,0.13164 -0.039492,0.13164 l -0.1316399,0.06582 c -0.078984,0.02633 -0.1316398,0.105312 -0.1579678,0.19746 l -0.026328,0.13164 v 0.02633 l -0.1316399,0.737183 c -0.026328,0.105312 -0.026328,0.223788 -0.026328,0.342264 0,0.105311 0.06582,0.197459 0.1579678,0.236951 l 0.2896076,0.13164 c 0.1316398,0.07898 0.2896076,0.171132 0.3949195,0.26328 l 0.1316398,0.105312 c 0.039492,0.05266 0.1053119,0.105311 0.1579678,0.131639 l 0.052656,0.05266 c 0.092148,0.07898 0.1579678,0.184296 0.1842958,0.302772 l 0.1316398,0.592379 c 0,0.157968 0.1316399,0.289608 0.2632797,0.3291 l 0.2106237,0.06582 c 0,0 0.039492,0 0.06582,0.02633 l 0.2632797,0.07898 c 0.2106237,0.06582 0.3949195,0.184295 0.5528873,0.342263 0.1579678,0.13164 0.3159356,0.302772 0.4475754,0.487068 l 0.052656,0.05265 c 0.1053119,0.13164 0.2632797,0.19746 0.4212475,0.157968 0.1579678,-0.03949 0.3290996,-0.05266 0.5002314,-0.05266 h 0.1974597 c 0.1316398,0 0.3027716,0.03949 0.4475754,0.13164 0.1316399,0.07898 0.3027716,0.13164 0.4607394,0.19746 h 0.039492 c 0.1579678,0.06582 0.3290996,0.03949 0.4607394,-0.05266 0.1316398,-0.105312 0.3027716,-0.157968 0.4739031,-0.157968 l 0.618707,0.03949 c 0.13164,0 0.26328,-0.02633 0.329099,-0.13164 h 0.02633 l 0.223788,-0.210623 0.06582,-0.06582 c 0.105312,-0.13164 0.26328,-0.184296 0.421247,-0.19746 h 0.592379 c 0.157968,0 0.302772,-0.13164 0.368592,-0.26328 0.06582,-0.13164 0.197459,-0.236951 0.355427,-0.263279 l 0.26328,-0.05266 c 0.105312,0 0.19746,-0.09215 0.236952,-0.210624 0.03949,-0.13164 0.105311,-0.236952 0.197459,-0.315936 l 0.210624,-0.210623 c 0.13164,-0.13164 0.19746,-0.26328 0.223788,-0.421248 z"
     id="path127"
     style="stroke-width:1" />
</svg>
