<?xml version="1.0" encoding="UTF-8" standalone="no"?>
<svg
   width="24"
   height="24"
   viewBox="0 0 24 24"
   version="1.1"
   id="svg169"
   sodipodi:docname="rss.svg"
   inkscape:version="1.2 (dc2aedaf03, 2022-05-15)"
   xmlns:inkscape="http://www.inkscape.org/namespaces/inkscape"
   xmlns:sodipodi="http://sodipodi.sourceforge.net/DTD/sodipodi-0.dtd"
   xmlns="http://www.w3.org/2000/svg"
   xmlns:svg="http://www.w3.org/2000/svg">
  <defs
     id="defs173" />
  <sodipodi:namedview
     id="namedview171"
     pagecolor="#ffffff"
     bordercolor="#666666"
     borderopacity="1.0"
     inkscape:showpageshadow="2"
     inkscape:pageopacity="0.0"
     inkscape:pagecheckerboard="0"
     inkscape:deskcolor="#d1d1d1"
     showgrid="false"
     inkscape:zoom="19.666667"
     inkscape:cx="5.8728814"
     inkscape:cy="10.70339"
     inkscape:window-width="1920"
     inkscape:window-height="1080"
     inkscape:window-x="0"
     inkscape:window-y="0"
     inkscape:window-maximized="1"
     inkscape:current-layer="svg169" />
  <path
     id="path11795"
     style="fill:#000000;stroke-width:32"
     class="button"
     d="m 4.5566928,0.0561282 c -2.4818161,0 -4.47878095,1.9969646 -4.47878095,4.4787808 V 19.46865 c 0,2.481816 1.99696485,4.478781 4.47878095,4.478781 H 19.490433 c 2.481817,0 4.478782,-1.996965 4.478782,-4.478781 V 4.534909 c 0,-2.4818162 -1.996965,-4.4787808 -4.478782,-4.4787808 z M 3.064325,3.0425411 A 17.919304,17.919304 0 0 1 20.982802,20.961018 H 17.996389 A 14.932754,14.932754 0 0 0 3.064325,6.0289538 Z m 0,5.9728259 A 11.946203,11.946203 0 0 1 15.009976,20.961018 H 12.023563 A 8.9596516,8.9596516 0 0 0 3.064325,12.001779 Z m 2.9864123,5.972826 A 2.9865507,2.9865507 0 0 1 9.0371506,17.974605 2.9865507,2.9865507 0 0 1 6.0507373,20.961018 2.9865507,2.9865507 0 0 1 3.064325,17.974605 2.9865507,2.9865507 0 0 1 6.0507373,14.988193 Z" />
</svg>
