<?xml version="1.0" encoding="UTF-8" standalone="no"?>
<!-- Created with Inkscape (http://www.inkscape.org/) -->

<svg
   version="1.1"
   id="svg151"
   width="719"
   height="404"
   viewBox="0 0 719 404"
   sodipodi:docname="thumbnail_bulb.svg"
   inkscape:version="1.2 (dc2aedaf03, 2022-05-15)"
   xmlns:inkscape="http://www.inkscape.org/namespaces/inkscape"
   xmlns:sodipodi="http://sodipodi.sourceforge.net/DTD/sodipodi-0.dtd"
   xmlns="http://www.w3.org/2000/svg"
   xmlns:svg="http://www.w3.org/2000/svg">
  <defs
     id="defs155" />
  <sodipodi:namedview
     id="namedview153"
     pagecolor="#ffffff"
     bordercolor="#666666"
     borderopacity="1.0"
     inkscape:showpageshadow="2"
     inkscape:pageopacity="0.0"
     inkscape:pagecheckerboard="0"
     inkscape:deskcolor="#d1d1d1"
     showgrid="false"
     showguides="true"
     inkscape:zoom="1.1683168"
     inkscape:cx="297.86441"
     inkscape:cy="195.58051"
     inkscape:window-width="1920"
     inkscape:window-height="1080"
     inkscape:window-x="0"
     inkscape:window-y="0"
     inkscape:window-maximized="1"
     inkscape:current-layer="g157" />
  <g
     inkscape:groupmode="layer"
     inkscape:label="Image"
     id="g157">
    <g
       id="g486"
       transform="matrix(14.157698,0,0,14.157698,528.25511,-159.28191)"
       style="stroke-width:0.0706332">
      <path
         style="fill:#c7cfe2;stroke-width:0.0706332"
         d="m -13.759578,32.782323 v 1.375507 c 0,1.008743 0.817716,1.826459 1.826459,1.826459 v 0 c 1.008742,0 1.826458,-0.817716 1.826458,-1.826459 v -1.375507 z"
         id="path87" />
      <path
         style="opacity:0.1;stroke-width:0.0706332;enable-background:new"
         d="m -12.376406,34.15783 v -1.375507 h -1.383129 v 1.375507 c 0,1.008743 0.817716,1.826459 1.826458,1.826459 0.244807,0 0.47818,-0.04849 0.691565,-0.135933 -0.665734,-0.272629 -1.134894,-0.926632 -1.134894,-1.690526 z"
         id="path89" />
      <path
         style="fill:#ffd782;stroke-width:0.0706332"
         d="m -11.85427,18.273687 c -3.146618,-0.0426 -5.780756,2.554569 -5.780756,5.701441 0,1.254227 0.405301,2.413639 1.091572,3.355092 1.101397,1.833826 1.624549,2.688215 1.78246,3.807651 0.06771,0.479959 0.477799,0.837196 0.9625,0.837196 h 3.730834 c 0.4847013,0 0.8947453,-0.35728 0.9625003,-0.837196 0.157953,-1.119436 0.681105,-1.973782 1.78246,-3.807651 0.686314,-0.941453 1.091572,-2.100865 1.091572,-3.355092 0,-3.122819 -2.510401,-5.659306 -5.6231423,-5.701441 z"
         id="path91" />
      <path
         style="opacity:0.1;stroke-width:0.0706332;enable-background:new"
         d="m -12.916835,31.137829 c -0.157953,-1.119437 -0.681063,-1.973783 -1.78246,-3.807651 -0.686314,-0.941454 -1.091572,-2.100866 -1.091572,-3.355092 0,-2.809199 2.099298,-5.180153 4.788275,-5.62636 -0.277625,-0.04561 -0.562068,-0.07114 -0.851678,-0.07512 -3.146618,-0.0426 -5.780756,2.554568 -5.780756,5.70144 0,1.254227 0.405301,2.413639 1.091572,3.355092 1.101397,1.833869 1.624507,2.688215 1.78246,3.807652 0.06771,0.479958 0.477799,0.837153 0.9625,0.837153 h 1.844201 c -0.484743,8.5e-5 -0.894829,-0.357153 -0.962542,-0.837111 z"
         id="path93" />
      <path
         style="fill:#b4bbcc;stroke-width:0.0706332"
         d="m -9.3578857,32.782323 -2.5751913,-0.807298 -2.575191,0.807298 c -0.44587,0 -0.807299,0.361472 -0.807299,0.807299 0,0.445869 0.361472,0.807341 0.807299,0.807341 h 5.1503403 c 0.445869,0 0.807299,-0.361472 0.807299,-0.807341 4.2e-5,-0.445827 -0.36143,-0.807299 -0.807257,-0.807299 z"
         id="path95" />
      <path
         style="opacity:0.1;stroke-width:0.0706332;enable-background:new"
         d="m -13.471408,33.589664 c 0,-0.445869 0.361472,-0.807299 0.807341,-0.807299 l 1.653091,-0.518197 -0.922101,-0.289059 -2.575191,0.807299 c -0.44587,0 -0.807341,0.361472 -0.807341,0.807298 0,0.44587 0.361471,0.807342 0.807341,0.807342 h 1.844201 c -0.445869,-8.5e-5 -0.807341,-0.361472 -0.807341,-0.807384 z"
         id="path97" />
      <path
         style="fill:#c7cfe2;stroke-width:0.0706332"
         d="m -9.3578857,31.167683 h -5.1503823 c -0.44587,0 -0.807299,0.361472 -0.807299,0.807299 v 0 c 0,0.445869 0.361472,0.807299 0.807299,0.807299 h 5.1503403 c 0.445869,0 0.807299,-0.361472 0.807299,-0.807299 v 0 c 4.2e-5,-0.445827 -0.36143,-0.807299 -0.807257,-0.807299 z"
         id="path99" />
      <path
         style="opacity:0.1;stroke-width:0.0706332;enable-background:new"
         d="m -13.471408,31.975025 c 0,-0.44587 0.361472,-0.807299 0.807341,-0.807299 h -1.844201 c -0.44587,0 -0.807341,0.361472 -0.807341,0.807299 0,0.445869 0.361471,0.807298 0.807341,0.807298 h 1.844201 c -0.445869,0 -0.807341,-0.361387 -0.807341,-0.807298 z"
         id="path101" />
      <path
         d="m -12.278881,14.994312 v 1.879476 c 0,0.190984 0.15482,0.345804 0.345804,0.345804 0.190984,0 0.345803,-0.15482 0.345803,-0.345804 v -1.879476 c 0,-0.190984 -0.154819,-0.345804 -0.345803,-0.345804 -0.190984,0 -0.345804,0.15482 -0.345804,0.345804 z"
         id="path103"
         style="stroke-width:0.0706332" />
      <path
         d="m -17.37959,16.469462 0.899021,1.650507 c 0.06276,0.115225 0.181414,0.180439 0.303965,0.180439 0.0559,0 0.112558,-0.01355 0.16511,-0.04218 0.167736,-0.09134 0.229604,-0.301382 0.138263,-0.469075 l -0.899022,-1.650504 c -0.09134,-0.167736 -0.301382,-0.229647 -0.469075,-0.138263 -0.167651,0.09139 -0.229562,0.301382 -0.138262,0.469076 z"
         id="path105"
         style="stroke-width:0.0706332" />
      <path
         d="m -21.153153,20.204784 1.579026,1.019372 c 0.05802,0.03748 0.122975,0.0553 0.187215,0.0553 0.113447,0 0.22465,-0.05581 0.290838,-0.158292 0.10358,-0.160451 0.05751,-0.374472 -0.102945,-0.478052 l -1.579026,-1.019371 c -0.160494,-0.103623 -0.374472,-0.05755 -0.478053,0.102944 -0.103622,0.160452 -0.05751,0.374515 0.102945,0.478095 z"
         id="path107"
         style="stroke-width:0.0706332" />
      <path
         d="m -6.6249527,16.000386 c -0.16782,-0.09138 -0.377775,-0.02943 -0.469075,0.138263 l -0.898979,1.650507 c -0.09134,0.167735 -0.02947,0.377691 0.13822,0.469075 0.05255,0.02863 0.109212,0.04218 0.16511,0.04218 0.122551,0 0.241207,-0.0653 0.303965,-0.180439 l 0.898979,-1.650507 c 0.09138,-0.167736 0.02947,-0.377691 -0.13822,-0.469076 z"
         id="path109"
         style="stroke-width:0.0706332" />
      <path
         d="m -3.0881087,19.623745 -1.579026,1.019371 c -0.160452,0.10358 -0.206567,0.317601 -0.102945,0.478052 0.06615,0.102437 0.177306,0.158292 0.290838,0.158292 0.06428,0 0.129284,-0.01787 0.187215,-0.0553 l 1.579026,-1.019372 c 0.160452,-0.10358 0.206567,-0.3176 0.102945,-0.478052 -0.10358,-0.160452 -0.31777,-0.206483 -0.478053,-0.102987 z"
         id="path111"
         style="stroke-width:0.0706332" />
      <path
         d="m -7.9965637,28.458465 c 0.0553,0.03282 0.116157,0.04844 0.17612,0.04844 0.118062,0 0.233119,-0.06047 0.297698,-0.169387 0.13877,-0.233881 0.289694,-0.485124 0.454126,-0.758854 l 0.03447,-0.05738 c 0.751613,-1.036522 1.148741,-2.262376 1.148741,-3.546203 0,-1.600877 -0.619364,-3.109862 -1.74401,-4.248905 -1.123586,-1.137984 -2.6223653,-1.776658 -4.2202353,-1.798255 -1.663466,-0.021 -3.285135,0.666877 -4.452042,1.891249 -0.131784,0.138262 -0.126532,0.35711 0.01177,0.488893 0.138262,0.131741 0.357152,0.126532 0.488893,-0.01177 1.034616,-1.085644 2.471442,-1.697639 3.942102,-1.676889 1.41506,0.01918 2.7424193,0.584808 3.7374843,1.592661 0.996038,1.008785 1.544555,2.345206 1.544555,3.763018 0,1.141584 -0.354485,2.231336 -1.025173,3.151446 -0.0061,0.0083 -0.01173,0.01681 -0.01702,0.02562 l -0.04226,0.07034 c -0.16511,0.274873 -0.316712,0.527218 -0.456075,0.762073 -0.09748,0.164305 -0.04336,0.37642 0.120858,0.473902 z"
         id="path113"
         style="stroke-width:0.0706332" />
      <path
         d="m -8.3376247,29.05187 c -0.169768,-0.08723 -0.378284,-0.02037 -0.465603,0.149526 -0.311503,0.606194 -0.497532,1.10614 -0.599122,1.620526 h -5.0614543 c -0.205933,-1.044017 -0.737723,-1.929191 -1.721396,-3.566741 l -0.06187,-0.102945 c -0.0053,-0.0088 -0.01097,-0.01732 -0.01702,-0.02566 -0.670688,-0.920111 -1.025173,-2.009862 -1.025173,-3.151446 0,-0.922778 0.246416,-1.837003 0.712696,-2.643793 0.09558,-0.165322 0.03896,-0.376844 -0.126362,-0.472378 -0.16528,-0.09558 -0.376802,-0.039 -0.472379,0.126363 -0.52692,0.911852 -0.805435,1.945706 -0.805435,2.989808 0,1.283784 0.397128,2.509639 1.148741,3.546202 l 0.05408,0.08999 c 0.988203,1.64513 1.47083,2.448744 1.645298,3.395152 -0.31777,0.205551 -0.528657,0.562789 -0.528657,0.968597 0,0.314129 0.126363,0.599123 0.330813,0.807299 -0.204408,0.208177 -0.330813,0.493213 -0.330813,0.807299 0,0.635836 0.517309,1.153144 1.15306,1.153144 h 0.483473 c 0.257892,0.923202 1.108892,1.587242 2.091676,1.587242 0.982784,0 1.833784,-0.663998 2.0917183,-1.587284 h 0.483473 c 0.635837,0 1.15306,-0.517308 1.15306,-1.153145 0,-0.314128 -0.126362,-0.599122 -0.330812,-0.807298 0.204407,-0.208177 0.330812,-0.493213 0.330812,-0.807299 0,-0.405809 -0.210886,-0.763089 -0.528656,-0.968597 0.08639,-0.469711 0.250523,-0.915198 0.545341,-1.488955 0.08732,-0.169853 0.02032,-0.378326 -0.149484,-0.465602 z m -3.5954523,6.586615 c -0.601917,0 -1.131336,-0.36524 -1.360051,-0.895719 h 2.720102 c -0.2288,0.530479 -0.758219,0.895719 -1.360051,0.895719 z m 1.613538,-2.510358 h 0.9616113 c 0.254504,0 0.461495,0.207076 0.461495,0.461495 0,0.254504 -0.207076,0.461537 -0.461495,0.461537 h -5.1503833 c -0.254504,0 -0.461495,-0.207076 -0.461495,-0.461537 0,-0.254462 0.207076,-0.461495 0.461495,-0.461495 h 2.821607 c 0.190984,0 0.345804,-0.15482 0.345804,-0.345804 0,-0.190984 -0.15482,-0.345803 -0.345804,-0.345803 h -2.821607 c -0.254504,0 -0.461495,-0.207076 -0.461495,-0.461495 0,-0.208389 0.138855,-0.384763 0.328865,-0.441931 0.01783,-0.0053 0.03604,-0.0094 0.05446,-0.01249 0.0055,-9.67e-4 0.01105,-0.0018 0.01664,-0.0025 0.02033,-0.0027 0.04082,-0.0046 0.06153,-0.0046 h 5.1503413 c 0.02075,0 0.0412,0.0019 0.06153,0.0046 0.0056,7.25e-4 0.01114,0.0016 0.01673,0.0026 0.01825,0.0031 0.03633,0.0071 0.05404,0.01241 0.190179,0.05704 0.329246,0.233458 0.329246,0.442016 0,0.254504 -0.207076,0.461495 -0.461495,0.461495 h -0.9616193 c -0.190984,0 -0.345804,0.15482 -0.345804,0.345803 0,0.190984 0.15482,0.345762 0.345804,0.345762 z"
         id="path115"
         style="stroke-width:0.0706332" />
    </g>
  </g>
</svg>
